<svg width="138" height="40" viewBox="0 0 138 40" fill="none" xmlns="http://www.w3.org/2000/svg">
<path fill-rule="evenodd" clip-rule="evenodd" d="M89.8231 19.452L77.2388 13.8893L81.4819 27.3625C82.2869 29.7629 84.3162 32.1176 87.7431 32.1176C91.3109 32.1176 94.2311 29.2057 94.2311 25.6384C94.2311 22.6162 92.3731 20.5958 89.8231 19.452Z" fill="white"/>
<path fill-rule="evenodd" clip-rule="evenodd" d="M117.251 19.1592L116.447 16.8425H102.116V19.1592H109.762V16.9606L110.541 19.1592H117.251Z" fill="white"/>
<path fill-rule="evenodd" clip-rule="evenodd" d="M111.383 2.24701H97.0195V4.56375H112.187L111.383 2.24701Z" fill="white"/>
<path fill-rule="evenodd" clip-rule="evenodd" d="M113.071 7.11218H97.0195V9.42892H113.875L113.071 7.11218Z" fill="white"/>
<path fill-rule="evenodd" clip-rule="evenodd" d="M120.939 9.42892H137.794V7.11218H121.743L120.939 9.42892Z" fill="white"/>
<path fill-rule="evenodd" clip-rule="evenodd" d="M102.116 14.294H115.563L114.759 11.9773H102.116V14.294Z" fill="white"/>
<path fill-rule="evenodd" clip-rule="evenodd" d="M112.258 24.0243H122.556L123.373 21.7076H111.44L112.258 24.0243Z" fill="white"/>
<path fill-rule="evenodd" clip-rule="evenodd" d="M113.976 28.8895H120.838L121.656 26.5728H113.158L113.976 28.8895Z" fill="white"/>
<path fill-rule="evenodd" clip-rule="evenodd" d="M115.694 33.7547H119.12L119.938 31.4379H114.876L115.694 33.7547Z" fill="white"/>
<path fill-rule="evenodd" clip-rule="evenodd" d="M117.407 38.6073L118.221 36.303H116.594L117.407 38.6073Z" fill="white"/>
<path fill-rule="evenodd" clip-rule="evenodd" d="M123.43 2.24701L122.627 4.56375H137.794V2.24701H123.43Z" fill="white"/>
<path fill-rule="evenodd" clip-rule="evenodd" d="M132.697 11.9773H120.055L119.251 14.294H132.697V11.9773Z" fill="white"/>
<path fill-rule="evenodd" clip-rule="evenodd" d="M125.052 19.1592H132.697V16.8425H118.367L117.563 19.1592H124.273L125.052 16.9527V19.1592Z" fill="white"/>
<path fill-rule="evenodd" clip-rule="evenodd" d="M125.052 24.0243H132.697V21.7076H125.052V24.0243Z" fill="white"/>
<path fill-rule="evenodd" clip-rule="evenodd" d="M125.052 28.8895H132.697V26.5728H125.052V28.8895Z" fill="white"/>
<path fill-rule="evenodd" clip-rule="evenodd" d="M125.052 33.7547H137.794V31.4379H125.052V33.7547Z" fill="white"/>
<path fill-rule="evenodd" clip-rule="evenodd" d="M125.052 38.6198H137.794V36.303H125.052V38.6198Z" fill="white"/>
<path fill-rule="evenodd" clip-rule="evenodd" d="M102.116 24.0243H109.762V21.7076H102.116V24.0243Z" fill="white"/>
<path fill-rule="evenodd" clip-rule="evenodd" d="M102.116 28.8895H109.762V26.5728H102.116V28.8895Z" fill="white"/>
<path fill-rule="evenodd" clip-rule="evenodd" d="M97.0195 33.7547H109.762V31.4379H97.0195V33.7547Z" fill="white"/>
<path fill-rule="evenodd" clip-rule="evenodd" d="M97.0195 38.6198H109.762V36.303H97.0195V38.6198Z" fill="white"/>
<path fill-rule="evenodd" clip-rule="evenodd" d="M61.9453 34.9119C63.2276 37.6438 66.0052 39.5463 69.2226 39.5463C72.4424 39.5463 75.2021 37.6468 76.4833 34.9119H61.9453Z" fill="white"/>
<path fill-rule="evenodd" clip-rule="evenodd" d="M77.2387 26.879H61.1731V31.2044H77.2378L77.2387 26.879Z" fill="white"/>
<path fill-rule="evenodd" clip-rule="evenodd" d="M77.2387 18.8462H61.1731V23.1715H77.2378L77.2387 18.8462Z" fill="white"/>
<path fill-rule="evenodd" clip-rule="evenodd" d="M76.4833 15.1387C75.201 12.407 72.423 10.5043 69.2057 10.5043C65.9859 10.5043 63.2262 12.4038 61.9453 15.1389L76.4833 15.1387Z" fill="white"/>
<path fill-rule="evenodd" clip-rule="evenodd" d="M44.1804 25.6384C44.1804 29.2057 47.1009 32.1176 50.6687 32.1176C54.0954 32.1176 56.1248 29.7629 56.9297 27.3625L61.173 13.8893L48.5887 19.452C46.0387 20.5958 44.1804 22.6162 44.1804 25.6384Z" fill="white"/>
<path fill-rule="evenodd" clip-rule="evenodd" d="M73.847 1.54486C71.8034 1.54486 70.1462 3.20156 70.1462 5.24539C70.1462 7.28921 71.8034 8.94591 73.847 8.94591C75.8908 8.94591 77.5478 7.28921 77.5478 5.24539C77.5478 3.20156 75.8908 1.54486 73.847 1.54486Z" fill="white"/>
<path fill-rule="evenodd" clip-rule="evenodd" d="M64.5648 1.54486C62.5209 1.54486 60.864 3.20156 60.864 5.24539C60.864 7.28921 62.5209 8.94591 64.5648 8.94591C66.6086 8.94591 68.2653 7.28921 68.2653 5.24539C68.2653 3.20156 66.6086 1.54486 64.5648 1.54486Z" fill="white"/>
<path fill-rule="evenodd" clip-rule="evenodd" d="M19.7732 0C11.8636 0 4.95675 4.47084 1.23584 11.1224V14.8299C5.66359 9.5438 12.3235 6.17897 19.7732 6.17897C27.2229 6.17897 33.8826 9.5438 38.3104 14.8299V11.1224C34.5897 4.47084 27.6828 0 19.7732 0Z" fill="white"/>
<path fill-rule="evenodd" clip-rule="evenodd" d="M39.5462 25.9523C36.2908 33.9402 28.6634 39.546 19.7731 39.546C10.8829 39.546 3.25548 33.9402 0 25.9523C3.25548 17.964 10.8829 12.3582 19.7731 12.3582C28.6634 12.3582 36.2908 17.964 39.5462 25.9523Z" fill="white"/>
<path fill-rule="evenodd" clip-rule="evenodd" d="M30.8952 25.9524C30.8952 19.8096 25.9157 14.83 19.7731 14.83C13.6302 14.83 8.65063 19.8096 8.65063 25.9524C8.65063 32.095 13.6302 37.0746 19.7731 37.0746C25.9157 37.0746 30.8952 32.095 30.8952 25.9524Z" fill="black"/>
<path fill-rule="evenodd" clip-rule="evenodd" d="M24.7163 25.9523C24.7163 28.6823 22.5031 30.8953 19.7731 30.8953C17.0428 30.8953 14.8298 28.6823 14.8298 25.9523C14.8298 23.222 17.0428 21.0089 19.7731 21.0089C22.5031 21.0089 24.7163 23.222 24.7163 25.9523Z" fill="white"/>
</svg>
