<svg width="210" height="63" viewBox="0 0 210 63" fill="none" xmlns="http://www.w3.org/2000/svg">
<path d="M13.5 1.6875C11.1637 1.6875 8.87989 2.38029 6.93733 3.67827C4.99478 4.97624 3.48074 6.8211 2.58668 8.97955C1.69262 11.138 1.45869 13.5131 1.91448 15.8045C2.37027 18.0959 3.4953 20.2007 5.14731 21.8527C6.79931 23.5047 8.9041 24.6297 11.1955 25.0855C13.4869 25.5413 15.862 25.3074 18.0205 24.4133C20.1789 23.5193 22.0238 22.0052 23.3217 20.0627C24.6197 18.1201 25.3125 15.8363 25.3125 13.5C25.309 10.3682 24.0633 7.36571 21.8488 5.1512C19.6343 2.93669 16.6318 1.69103 13.5 1.6875ZM13.5 23.625C10.8147 23.625 8.23936 22.5583 6.34055 20.6595C4.44174 18.7607 3.37501 16.1853 3.37501 13.5C3.37501 10.8147 4.44174 8.23935 6.34055 6.34054C8.23936 4.44174 10.8147 3.375 13.5 3.375V13.5L20.656 20.6562C19.7175 21.598 18.6023 22.345 17.3742 22.8545C16.1462 23.364 14.8295 23.6258 13.5 23.625Z" fill="white"/>
<path d="M77.5 37.6875C75.1637 37.6875 72.8799 38.3803 70.9373 39.6783C68.9948 40.9762 67.4807 42.8211 66.5867 44.9796C65.6926 47.138 65.4587 49.5131 65.9145 51.8045C66.3703 54.0959 67.4953 56.2007 69.1473 57.8527C70.7993 59.5047 72.9041 60.6297 75.1955 61.0855C77.4869 61.5413 79.862 61.3074 82.0205 60.4133C84.1789 59.5193 86.0238 58.0052 87.3217 56.0627C88.6197 54.1201 89.3125 51.8363 89.3125 49.5C89.3125 46.3671 88.068 43.3626 85.8527 41.1473C83.6374 38.932 80.6329 37.6875 77.5 37.6875ZM77.5 59.625C75.4975 59.625 73.5399 59.0312 71.8749 57.9186C70.2098 56.8061 68.9121 55.2248 68.1457 53.3747C67.3794 51.5246 67.1789 49.4888 67.5696 47.5247C67.9602 45.5607 68.9245 43.7566 70.3405 42.3405C71.7566 40.9245 73.5607 39.9602 75.5247 39.5695C77.4888 39.1789 79.5246 39.3794 81.3747 40.1457C83.2248 40.9121 84.8061 42.2098 85.9186 43.8749C87.0312 45.5399 87.625 47.4975 87.625 49.5C87.625 52.1853 86.5583 54.7607 84.6595 56.6595C82.7607 58.5583 80.1853 59.625 77.5 59.625Z" fill="white"/>
<path d="M77.5 57.0938C78.199 57.0938 78.7656 56.5271 78.7656 55.8281C78.7656 55.1291 78.199 54.5625 77.5 54.5625C76.801 54.5625 76.2344 55.1291 76.2344 55.8281C76.2344 56.5271 76.801 57.0938 77.5 57.0938Z" fill="white"/>
<path d="M78.3438 42.75H77.0781C76.5792 42.7489 76.085 42.8463 75.6238 43.0368C75.1627 43.2272 74.7437 43.5068 74.3909 43.8596C74.0381 44.2124 73.7584 44.6314 73.568 45.0926C73.3776 45.5537 73.2801 46.048 73.2813 46.5469V46.9688H74.9688V46.5469C74.9688 45.9874 75.191 45.4509 75.5866 45.0553C75.9822 44.6597 76.5187 44.4375 77.0781 44.4375H78.3438C78.9032 44.4375 79.4397 44.6597 79.8353 45.0553C80.2309 45.4509 80.4531 45.9874 80.4531 46.5469C80.4531 47.1063 80.2309 47.6429 79.8353 48.0384C79.4397 48.434 78.9032 48.6563 78.3438 48.6563H76.6563V52.4531H78.3438V50.3438C79.3508 50.3438 80.3165 49.9437 81.0286 49.2317C81.7406 48.5196 82.1406 47.5539 82.1406 46.5469C82.1406 45.5399 81.7406 44.5741 81.0286 43.8621C80.3165 43.15 79.3508 42.75 78.3438 42.75Z" fill="white"/>
<path d="M113.112 56.296H111.67C111.278 56.296 110.984 56.184 110.788 55.96C110.592 55.7453 110.494 55.4747 110.494 55.148V54.154C109.934 54.098 109.425 53.9487 108.968 53.706C108.511 53.4633 108.123 53.132 107.806 52.712C107.489 52.2827 107.241 51.7693 107.064 51.172C106.896 50.5653 106.812 49.8793 106.812 49.114C106.812 48.2927 106.91 47.5693 107.106 46.944C107.302 46.3187 107.577 45.7913 107.932 45.362C108.296 44.9327 108.73 44.6107 109.234 44.396C109.747 44.172 110.321 44.06 110.956 44.06C111.581 44.06 112.151 44.172 112.664 44.396C113.177 44.6107 113.611 44.9327 113.966 45.362C114.33 45.7913 114.61 46.3187 114.806 46.944C115.002 47.5693 115.1 48.2927 115.1 49.114C115.1 50.6167 114.787 51.7927 114.162 52.642C113.537 53.482 112.687 53.9767 111.614 54.126V55.316H113.112V56.296ZM110.956 53.118C111.376 53.118 111.763 53.0433 112.118 52.894C112.473 52.7447 112.776 52.53 113.028 52.25C113.289 51.97 113.49 51.634 113.63 51.242C113.77 50.85 113.84 50.4113 113.84 49.926V48.302C113.84 47.8167 113.77 47.378 113.63 46.986C113.49 46.594 113.289 46.258 113.028 45.978C112.776 45.698 112.473 45.4833 112.118 45.334C111.763 45.1847 111.376 45.11 110.956 45.11C110.536 45.11 110.149 45.1847 109.794 45.334C109.439 45.4833 109.131 45.698 108.87 45.978C108.618 46.258 108.422 46.594 108.282 46.986C108.142 47.378 108.072 47.8167 108.072 48.302V49.926C108.072 50.4113 108.142 50.85 108.282 51.242C108.422 51.634 108.618 51.97 108.87 52.25C109.131 52.53 109.439 52.7447 109.794 52.894C110.149 53.0433 110.536 53.118 110.956 53.118ZM121.554 52.824H121.498C121.423 52.992 121.33 53.16 121.218 53.328C121.115 53.4867 120.985 53.6313 120.826 53.762C120.667 53.8833 120.476 53.9813 120.252 54.056C120.028 54.1307 119.767 54.168 119.468 54.168C118.721 54.168 118.129 53.93 117.69 53.454C117.251 52.9687 117.032 52.2873 117.032 51.41V46.776H118.152V51.214C118.152 52.5113 118.703 53.16 119.804 53.16C120.028 53.16 120.243 53.132 120.448 53.076C120.663 53.02 120.849 52.936 121.008 52.824C121.176 52.712 121.307 52.572 121.4 52.404C121.503 52.2267 121.554 52.0167 121.554 51.774V46.776H122.674V54H121.554V52.824ZM127.775 54.168C127.28 54.168 126.832 54.0793 126.431 53.902C126.039 53.7247 125.698 53.4727 125.409 53.146C125.129 52.81 124.91 52.4133 124.751 51.956C124.602 51.4893 124.527 50.9667 124.527 50.388C124.527 49.8187 124.602 49.3007 124.751 48.834C124.91 48.3673 125.129 47.9707 125.409 47.644C125.698 47.308 126.039 47.0513 126.431 46.874C126.832 46.6967 127.28 46.608 127.775 46.608C128.26 46.608 128.694 46.6967 129.077 46.874C129.46 47.0513 129.786 47.2987 130.057 47.616C130.328 47.924 130.533 48.2927 130.673 48.722C130.822 49.1513 130.897 49.6227 130.897 50.136V50.668H125.703V51.004C125.703 51.312 125.75 51.6013 125.843 51.872C125.946 52.1333 126.086 52.362 126.263 52.558C126.45 52.754 126.674 52.908 126.935 53.02C127.206 53.132 127.509 53.188 127.845 53.188C128.302 53.188 128.699 53.0807 129.035 52.866C129.38 52.6513 129.646 52.3433 129.833 51.942L130.631 52.516C130.398 53.0107 130.034 53.412 129.539 53.72C129.044 54.0187 128.456 54.168 127.775 54.168ZM127.775 47.546C127.467 47.546 127.187 47.602 126.935 47.714C126.683 47.8167 126.464 47.966 126.277 48.162C126.1 48.358 125.96 48.5913 125.857 48.862C125.754 49.1233 125.703 49.4127 125.703 49.73V49.828H129.693V49.674C129.693 49.03 129.516 48.5167 129.161 48.134C128.816 47.742 128.354 47.546 127.775 47.546ZM134.913 54.168C134.241 54.168 133.676 54.042 133.219 53.79C132.771 53.5287 132.383 53.1833 132.057 52.754L132.855 52.11C133.135 52.4647 133.447 52.74 133.793 52.936C134.138 53.1227 134.539 53.216 134.997 53.216C135.473 53.216 135.841 53.1133 136.103 52.908C136.373 52.7027 136.509 52.4133 136.509 52.04C136.509 51.76 136.415 51.522 136.229 51.326C136.051 51.1207 135.725 50.9807 135.249 50.906L134.675 50.822C134.339 50.7753 134.031 50.7053 133.751 50.612C133.471 50.5093 133.223 50.3787 133.009 50.22C132.803 50.052 132.64 49.8467 132.519 49.604C132.407 49.3613 132.351 49.072 132.351 48.736C132.351 48.3813 132.416 48.0733 132.547 47.812C132.677 47.5413 132.855 47.3173 133.079 47.14C133.312 46.9627 133.587 46.832 133.905 46.748C134.222 46.6547 134.563 46.608 134.927 46.608C135.515 46.608 136.005 46.7107 136.397 46.916C136.798 47.1213 137.148 47.406 137.447 47.77L136.705 48.442C136.546 48.218 136.313 48.0173 136.005 47.84C135.697 47.6533 135.309 47.56 134.843 47.56C134.376 47.56 134.021 47.6627 133.779 47.868C133.545 48.064 133.429 48.3347 133.429 48.68C133.429 49.0347 133.545 49.2913 133.779 49.45C134.021 49.6087 134.367 49.7253 134.815 49.8L135.375 49.884C136.177 50.0053 136.747 50.2387 137.083 50.584C137.419 50.92 137.587 51.3633 137.587 51.914C137.587 52.614 137.349 53.1647 136.873 53.566C136.397 53.9673 135.743 54.168 134.913 54.168ZM141.065 54C140.673 54 140.375 53.8927 140.169 53.678C139.973 53.454 139.875 53.1647 139.875 52.81V47.756H138.685V46.776H139.357C139.6 46.776 139.763 46.7293 139.847 46.636C139.941 46.5333 139.987 46.3607 139.987 46.118V44.774H140.995V46.776H142.577V47.756H140.995V53.02H142.465V54H141.065ZM144.938 45.082C144.695 45.082 144.518 45.026 144.406 44.914C144.303 44.7927 144.252 44.6387 144.252 44.452V44.27C144.252 44.0833 144.303 43.934 144.406 43.822C144.518 43.7007 144.695 43.64 144.938 43.64C145.18 43.64 145.353 43.7007 145.456 43.822C145.568 43.934 145.624 44.0833 145.624 44.27V44.452C145.624 44.6387 145.568 44.7927 145.456 44.914C145.353 45.026 145.18 45.082 144.938 45.082ZM144.378 46.776H145.498V54H144.378V46.776ZM150.608 54.168C150.122 54.168 149.679 54.0793 149.278 53.902C148.876 53.7247 148.531 53.4727 148.242 53.146C147.962 52.81 147.742 52.4133 147.584 51.956C147.425 51.4893 147.346 50.9667 147.346 50.388C147.346 49.8187 147.425 49.3007 147.584 48.834C147.742 48.3673 147.962 47.9707 148.242 47.644C148.531 47.308 148.876 47.0513 149.278 46.874C149.679 46.6967 150.122 46.608 150.608 46.608C151.093 46.608 151.532 46.6967 151.924 46.874C152.325 47.0513 152.67 47.308 152.96 47.644C153.249 47.9707 153.473 48.3673 153.632 48.834C153.79 49.3007 153.87 49.8187 153.87 50.388C153.87 50.9667 153.79 51.4893 153.632 51.956C153.473 52.4133 153.249 52.81 152.96 53.146C152.67 53.4727 152.325 53.7247 151.924 53.902C151.532 54.0793 151.093 54.168 150.608 54.168ZM150.608 53.174C151.214 53.174 151.709 52.9873 152.092 52.614C152.474 52.2407 152.666 51.6713 152.666 50.906V49.87C152.666 49.1047 152.474 48.5353 152.092 48.162C151.709 47.7887 151.214 47.602 150.608 47.602C150.001 47.602 149.506 47.7887 149.124 48.162C148.741 48.5353 148.55 49.1047 148.55 49.87V50.906C148.55 51.6713 148.741 52.2407 149.124 52.614C149.506 52.9873 150.001 53.174 150.608 53.174ZM155.711 54V46.776H156.831V47.952H156.887C157.065 47.5413 157.312 47.2147 157.629 46.972C157.956 46.7293 158.39 46.608 158.931 46.608C159.678 46.608 160.266 46.8507 160.695 47.336C161.134 47.812 161.353 48.4887 161.353 49.366V54H160.233V49.562C160.233 48.2647 159.687 47.616 158.595 47.616C158.371 47.616 158.152 47.644 157.937 47.7C157.732 47.756 157.545 47.84 157.377 47.952C157.209 48.064 157.074 48.2087 156.971 48.386C156.878 48.554 156.831 48.7547 156.831 48.988V54H155.711ZM167.019 54V52.964H169.749V45.096H169.651L167.187 47.392L166.501 46.65L169.091 44.228H170.925V52.964H173.445V54H167.019ZM181.41 54.168C180.925 54.168 180.482 54.0793 180.08 53.902C179.679 53.7247 179.334 53.4727 179.044 53.146C178.764 52.81 178.545 52.4133 178.386 51.956C178.228 51.4893 178.148 50.9667 178.148 50.388C178.148 49.8187 178.228 49.3007 178.386 48.834C178.545 48.3673 178.764 47.9707 179.044 47.644C179.334 47.308 179.679 47.0513 180.08 46.874C180.482 46.6967 180.925 46.608 181.41 46.608C181.896 46.608 182.334 46.6967 182.726 46.874C183.128 47.0513 183.473 47.308 183.762 47.644C184.052 47.9707 184.276 48.3673 184.434 48.834C184.593 49.3007 184.672 49.8187 184.672 50.388C184.672 50.9667 184.593 51.4893 184.434 51.956C184.276 52.4133 184.052 52.81 183.762 53.146C183.473 53.4727 183.128 53.7247 182.726 53.902C182.334 54.0793 181.896 54.168 181.41 54.168ZM181.41 53.174C182.017 53.174 182.512 52.9873 182.894 52.614C183.277 52.2407 183.468 51.6713 183.468 50.906V49.87C183.468 49.1047 183.277 48.5353 182.894 48.162C182.512 47.7887 182.017 47.602 181.41 47.602C180.804 47.602 180.309 47.7887 179.926 48.162C179.544 48.5353 179.352 49.1047 179.352 49.87V50.906C179.352 51.6713 179.544 52.2407 179.926 52.614C180.309 52.9873 180.804 53.174 181.41 53.174ZM186.824 47.756H185.648V46.776H186.824V45.32C186.824 44.816 186.955 44.41 187.216 44.102C187.478 43.794 187.874 43.64 188.406 43.64H189.498V44.62H187.944V46.776H189.498V47.756H187.944V54H186.824V47.756ZM197.304 54.168C196.8 54.168 196.343 54.084 195.932 53.916C195.531 53.7387 195.185 53.4913 194.896 53.174C194.616 52.8473 194.401 52.4507 194.252 51.984C194.103 51.5173 194.028 50.9947 194.028 50.416C194.028 49.688 194.135 49.0067 194.35 48.372C194.565 47.728 194.84 47.1447 195.176 46.622C195.521 46.09 195.899 45.6233 196.31 45.222C196.721 44.8113 197.122 44.48 197.514 44.228H199.026C198.503 44.6107 198.037 44.984 197.626 45.348C197.215 45.712 196.856 46.0947 196.548 46.496C196.24 46.888 195.979 47.3127 195.764 47.77C195.549 48.218 195.377 48.7267 195.246 49.296L195.316 49.324C195.549 48.9227 195.848 48.5913 196.212 48.33C196.585 48.0593 197.071 47.924 197.668 47.924C198.088 47.924 198.475 47.994 198.83 48.134C199.185 48.274 199.488 48.4747 199.74 48.736C199.992 48.9973 200.188 49.3147 200.328 49.688C200.477 50.0613 200.552 50.4767 200.552 50.934C200.552 51.41 200.473 51.8487 200.314 52.25C200.165 52.642 199.945 52.9827 199.656 53.272C199.376 53.552 199.035 53.7713 198.634 53.93C198.233 54.0887 197.789 54.168 197.304 54.168ZM197.29 53.146C197.934 53.146 198.433 52.9687 198.788 52.614C199.152 52.2593 199.334 51.7507 199.334 51.088V50.976C199.334 50.3133 199.152 49.8047 198.788 49.45C198.433 49.0953 197.934 48.918 197.29 48.918C196.646 48.918 196.142 49.0953 195.778 49.45C195.423 49.8047 195.246 50.3133 195.246 50.976V51.088C195.246 51.7507 195.423 52.2593 195.778 52.614C196.142 52.9687 196.646 53.146 197.29 53.146ZM205.684 54.168C204.518 54.168 203.664 53.7247 203.122 52.838C202.59 51.9513 202.324 50.71 202.324 49.114C202.324 47.518 202.59 46.2767 203.122 45.39C203.664 44.5033 204.518 44.06 205.684 44.06C206.851 44.06 207.7 44.5033 208.232 45.39C208.774 46.2767 209.044 47.518 209.044 49.114C209.044 50.71 208.774 51.9513 208.232 52.838C207.7 53.7247 206.851 54.168 205.684 54.168ZM205.684 53.146C206.067 53.146 206.394 53.0667 206.664 52.908C206.935 52.7493 207.154 52.5253 207.322 52.236C207.49 51.9467 207.612 51.606 207.686 51.214C207.77 50.822 207.812 50.388 207.812 49.912V48.316C207.812 47.84 207.77 47.406 207.686 47.014C207.612 46.622 207.49 46.2813 207.322 45.992C207.154 45.7027 206.935 45.4787 206.664 45.32C206.394 45.1613 206.067 45.082 205.684 45.082C205.302 45.082 204.975 45.1613 204.704 45.32C204.434 45.4787 204.214 45.7027 204.046 45.992C203.878 46.2813 203.752 46.622 203.668 47.014C203.594 47.406 203.556 47.84 203.556 48.316V49.912C203.556 50.388 203.594 50.822 203.668 51.214C203.752 51.606 203.878 51.9467 204.046 52.236C204.214 52.5253 204.434 52.7493 204.704 52.908C204.975 53.0667 205.302 53.146 205.684 53.146Z" fill="white"/>
<path d="M46.592 9.264V18H45.416V9.264H42.308V8.228H49.7V9.264H46.592ZM51.7617 9.082C51.5191 9.082 51.3417 9.026 51.2297 8.914C51.1271 8.79267 51.0757 8.63867 51.0757 8.452V8.27C51.0757 8.08333 51.1271 7.934 51.2297 7.822C51.3417 7.70067 51.5191 7.64 51.7617 7.64C52.0044 7.64 52.1771 7.70067 52.2797 7.822C52.3917 7.934 52.4477 8.08333 52.4477 8.27V8.452C52.4477 8.63867 52.3917 8.79267 52.2797 8.914C52.1771 9.026 52.0044 9.082 51.7617 9.082ZM51.2017 10.776H52.3217V18H51.2017V10.776ZM54.7017 18V10.776H55.8217V11.952H55.8777C55.9617 11.7653 56.0551 11.5927 56.1577 11.434C56.2697 11.266 56.4004 11.1213 56.5497 11C56.7084 10.8787 56.8904 10.7853 57.0957 10.72C57.3011 10.6453 57.5437 10.608 57.8237 10.608C58.2997 10.608 58.7384 10.7247 59.1397 10.958C59.5411 11.182 59.8397 11.5553 60.0357 12.078H60.0637C60.1944 11.686 60.4371 11.3453 60.7917 11.056C61.1557 10.7573 61.6457 10.608 62.2617 10.608C62.9991 10.608 63.5731 10.8507 63.9837 11.336C64.4037 11.812 64.6137 12.4887 64.6137 13.366V18H63.4937V13.562C63.4937 12.918 63.3677 12.4327 63.1157 12.106C62.8637 11.7793 62.4624 11.616 61.9117 11.616C61.6877 11.616 61.4731 11.644 61.2677 11.7C61.0717 11.756 60.8944 11.84 60.7357 11.952C60.5771 12.064 60.4511 12.2087 60.3577 12.386C60.2644 12.554 60.2177 12.7547 60.2177 12.988V18H59.0977V13.562C59.0977 12.918 58.9717 12.4327 58.7197 12.106C58.4677 11.7793 58.0757 11.616 57.5437 11.616C57.3197 11.616 57.1051 11.644 56.8997 11.7C56.6944 11.756 56.5124 11.84 56.3537 11.952C56.1951 12.064 56.0644 12.2087 55.9617 12.386C55.8684 12.554 55.8217 12.7547 55.8217 12.988V18H54.7017ZM69.6404 18.168C69.1457 18.168 68.6977 18.0793 68.2964 17.902C67.9044 17.7247 67.5637 17.4727 67.2744 17.146C66.9944 16.81 66.775 16.4133 66.6164 15.956C66.467 15.4893 66.3924 14.9667 66.3924 14.388C66.3924 13.8187 66.467 13.3007 66.6164 12.834C66.775 12.3673 66.9944 11.9707 67.2744 11.644C67.5637 11.308 67.9044 11.0513 68.2964 10.874C68.6977 10.6967 69.1457 10.608 69.6404 10.608C70.1257 10.608 70.5597 10.6967 70.9424 10.874C71.325 11.0513 71.6517 11.2987 71.9224 11.616C72.193 11.924 72.3984 12.2927 72.5384 12.722C72.6877 13.1513 72.7624 13.6227 72.7624 14.136V14.668H67.5684V15.004C67.5684 15.312 67.615 15.6013 67.7084 15.872C67.811 16.1333 67.951 16.362 68.1284 16.558C68.315 16.754 68.539 16.908 68.8004 17.02C69.071 17.132 69.3744 17.188 69.7104 17.188C70.1677 17.188 70.5644 17.0807 70.9004 16.866C71.2457 16.6513 71.5117 16.3433 71.6984 15.942L72.4964 16.516C72.263 17.0107 71.899 17.412 71.4044 17.72C70.9097 18.0187 70.3217 18.168 69.6404 18.168ZM69.6404 11.546C69.3324 11.546 69.0524 11.602 68.8004 11.714C68.5484 11.8167 68.329 11.966 68.1424 12.162C67.965 12.358 67.825 12.5913 67.7224 12.862C67.6197 13.1233 67.5684 13.4127 67.5684 13.73V13.828H71.5584V13.674C71.5584 13.03 71.381 12.5167 71.0264 12.134C70.681 11.742 70.219 11.546 69.6404 11.546ZM79.2046 18H78.0286V8.228H81.9206C82.7792 8.228 83.4466 8.466 83.9226 8.942C84.4079 9.418 84.6506 10.104 84.6506 11C84.6506 11.7187 84.4826 12.3113 84.1466 12.778C83.8199 13.2353 83.3346 13.5387 82.6906 13.688L84.9306 18H83.6006L81.4866 13.8H79.2046V18ZM81.9206 12.792C82.3872 12.792 82.7466 12.6707 82.9986 12.428C83.2599 12.1853 83.3906 11.84 83.3906 11.392V10.664C83.3906 10.216 83.2599 9.87067 82.9986 9.628C82.7466 9.38533 82.3872 9.264 81.9206 9.264H79.2046V12.792H81.9206ZM89.3826 18.168C88.8879 18.168 88.4399 18.0793 88.0386 17.902C87.6466 17.7247 87.3059 17.4727 87.0166 17.146C86.7366 16.81 86.5172 16.4133 86.3586 15.956C86.2092 15.4893 86.1346 14.9667 86.1346 14.388C86.1346 13.8187 86.2092 13.3007 86.3586 12.834C86.5172 12.3673 86.7366 11.9707 87.0166 11.644C87.3059 11.308 87.6466 11.0513 88.0386 10.874C88.4399 10.6967 88.8879 10.608 89.3826 10.608C89.8679 10.608 90.3019 10.6967 90.6846 10.874C91.0672 11.0513 91.3939 11.2987 91.6646 11.616C91.9352 11.924 92.1406 12.2927 92.2806 12.722C92.4299 13.1513 92.5046 13.6227 92.5046 14.136V14.668H87.3106V15.004C87.3106 15.312 87.3572 15.6013 87.4506 15.872C87.5532 16.1333 87.6932 16.362 87.8706 16.558C88.0572 16.754 88.2812 16.908 88.5426 17.02C88.8132 17.132 89.1166 17.188 89.4526 17.188C89.9099 17.188 90.3066 17.0807 90.6426 16.866C90.9879 16.6513 91.2539 16.3433 91.4406 15.942L92.2386 16.516C92.0052 17.0107 91.6412 17.412 91.1466 17.72C90.6519 18.0187 90.0639 18.168 89.3826 18.168ZM89.3826 11.546C89.0746 11.546 88.7946 11.602 88.5426 11.714C88.2906 11.8167 88.0712 11.966 87.8846 12.162C87.7072 12.358 87.5672 12.5913 87.4646 12.862C87.3619 13.1233 87.3106 13.4127 87.3106 13.73V13.828H91.3006V13.674C91.3006 13.03 91.1232 12.5167 90.7686 12.134C90.4232 11.742 89.9612 11.546 89.3826 11.546ZM94.3502 18V10.776H95.4702V11.952H95.5262C95.6102 11.7653 95.7035 11.5927 95.8062 11.434C95.9182 11.266 96.0488 11.1213 96.1982 11C96.3568 10.8787 96.5388 10.7853 96.7442 10.72C96.9495 10.6453 97.1922 10.608 97.4722 10.608C97.9482 10.608 98.3868 10.7247 98.7882 10.958C99.1895 11.182 99.4882 11.5553 99.6842 12.078H99.7122C99.8428 11.686 100.085 11.3453 100.44 11.056C100.804 10.7573 101.294 10.608 101.91 10.608C102.647 10.608 103.221 10.8507 103.632 11.336C104.052 11.812 104.262 12.4887 104.262 13.366V18H103.142V13.562C103.142 12.918 103.016 12.4327 102.764 12.106C102.512 11.7793 102.111 11.616 101.56 11.616C101.336 11.616 101.121 11.644 100.916 11.7C100.72 11.756 100.543 11.84 100.384 11.952C100.225 12.064 100.099 12.2087 100.006 12.386C99.9128 12.554 99.8662 12.7547 99.8662 12.988V18H98.7462V13.562C98.7462 12.918 98.6202 12.4327 98.3682 12.106C98.1162 11.7793 97.7242 11.616 97.1922 11.616C96.9682 11.616 96.7535 11.644 96.5482 11.7C96.3428 11.756 96.1608 11.84 96.0022 11.952C95.8435 12.064 95.7128 12.2087 95.6102 12.386C95.5168 12.554 95.4702 12.7547 95.4702 12.988V18H94.3502ZM111.823 18C111.403 18 111.099 17.888 110.913 17.664C110.735 17.44 110.623 17.16 110.577 16.824H110.507C110.348 17.272 110.087 17.608 109.723 17.832C109.359 18.056 108.925 18.168 108.421 18.168C107.655 18.168 107.058 17.972 106.629 17.58C106.209 17.188 105.999 16.656 105.999 15.984C105.999 15.3027 106.246 14.78 106.741 14.416C107.245 14.052 108.024 13.87 109.079 13.87H110.507V13.156C110.507 12.6427 110.367 12.2507 110.087 11.98C109.807 11.7093 109.377 11.574 108.799 11.574C108.36 11.574 107.991 11.672 107.693 11.868C107.403 12.064 107.161 12.3253 106.965 12.652L106.293 12.022C106.489 11.63 106.801 11.2987 107.231 11.028C107.66 10.748 108.201 10.608 108.855 10.608C109.732 10.608 110.413 10.8227 110.899 11.252C111.384 11.6813 111.627 12.2787 111.627 13.044V17.02H112.453V18H111.823ZM108.603 17.216C108.883 17.216 109.139 17.1833 109.373 17.118C109.606 17.0527 109.807 16.9593 109.975 16.838C110.143 16.7167 110.273 16.5767 110.367 16.418C110.46 16.2593 110.507 16.0867 110.507 15.9V14.71H109.023C108.379 14.71 107.907 14.8033 107.609 14.99C107.319 15.1767 107.175 15.4473 107.175 15.802V16.096C107.175 16.4507 107.301 16.726 107.553 16.922C107.814 17.118 108.164 17.216 108.603 17.216ZM114.611 9.082C114.369 9.082 114.191 9.026 114.079 8.914C113.977 8.79267 113.925 8.63867 113.925 8.452V8.27C113.925 8.08333 113.977 7.934 114.079 7.822C114.191 7.70067 114.369 7.64 114.611 7.64C114.854 7.64 115.027 7.70067 115.129 7.822C115.241 7.934 115.297 8.08333 115.297 8.27V8.452C115.297 8.63867 115.241 8.79267 115.129 8.914C115.027 9.026 114.854 9.082 114.611 9.082ZM114.051 10.776H115.171V18H114.051V10.776ZM117.551 18V10.776H118.671V11.952H118.727C118.905 11.5413 119.152 11.2147 119.469 10.972C119.796 10.7293 120.23 10.608 120.771 10.608C121.518 10.608 122.106 10.8507 122.535 11.336C122.974 11.812 123.193 12.4887 123.193 13.366V18H122.073V13.562C122.073 12.2647 121.527 11.616 120.435 11.616C120.211 11.616 119.992 11.644 119.777 11.7C119.572 11.756 119.385 11.84 119.217 11.952C119.049 12.064 118.914 12.2087 118.811 12.386C118.718 12.554 118.671 12.7547 118.671 12.988V18H117.551ZM126.068 9.082C125.826 9.082 125.648 9.026 125.536 8.914C125.434 8.79267 125.382 8.63867 125.382 8.452V8.27C125.382 8.08333 125.434 7.934 125.536 7.822C125.648 7.70067 125.826 7.64 126.068 7.64C126.311 7.64 126.484 7.70067 126.586 7.822C126.698 7.934 126.754 8.08333 126.754 8.27V8.452C126.754 8.63867 126.698 8.79267 126.586 8.914C126.484 9.026 126.311 9.082 126.068 9.082ZM125.508 10.776H126.628V18H125.508V10.776ZM129.008 18V10.776H130.128V11.952H130.184C130.362 11.5413 130.609 11.2147 130.926 10.972C131.253 10.7293 131.687 10.608 132.228 10.608C132.975 10.608 133.563 10.8507 133.992 11.336C134.431 11.812 134.65 12.4887 134.65 13.366V18H133.53V13.562C133.53 12.2647 132.984 11.616 131.892 11.616C131.668 11.616 131.449 11.644 131.234 11.7C131.029 11.756 130.842 11.84 130.674 11.952C130.506 12.064 130.371 12.2087 130.268 12.386C130.175 12.554 130.128 12.7547 130.128 12.988V18H129.008ZM143.055 18.798C143.055 19.5447 142.761 20.0907 142.173 20.436C141.595 20.7907 140.722 20.968 139.555 20.968C138.426 20.968 137.614 20.814 137.119 20.506C136.625 20.198 136.377 19.7593 136.377 19.19C136.377 18.798 136.48 18.49 136.685 18.266C136.891 18.0513 137.171 17.8927 137.525 17.79V17.636C137.096 17.4307 136.881 17.0947 136.881 16.628C136.881 16.264 136.998 15.9887 137.231 15.802C137.465 15.606 137.763 15.4613 138.127 15.368V15.312C137.698 15.1067 137.362 14.8127 137.119 14.43C136.886 14.0473 136.769 13.604 136.769 13.1C136.769 12.736 136.835 12.4 136.965 12.092C137.096 11.784 137.278 11.5227 137.511 11.308C137.754 11.084 138.039 10.9113 138.365 10.79C138.701 10.6687 139.075 10.608 139.485 10.608C139.999 10.608 140.456 10.7013 140.857 10.888V10.762C140.857 10.482 140.923 10.2533 141.053 10.076C141.184 9.88933 141.399 9.796 141.697 9.796H142.775V10.776H141.403V11.238C141.665 11.462 141.865 11.7327 142.005 12.05C142.155 12.358 142.229 12.708 142.229 13.1C142.229 13.464 142.164 13.8 142.033 14.108C141.903 14.416 141.716 14.682 141.473 14.906C141.24 15.1207 140.955 15.2887 140.619 15.41C140.283 15.5313 139.91 15.592 139.499 15.592C139.266 15.592 139.033 15.5687 138.799 15.522C138.557 15.5873 138.337 15.6853 138.141 15.816C137.945 15.9373 137.847 16.11 137.847 16.334C137.847 16.5487 137.95 16.6933 138.155 16.768C138.361 16.8427 138.627 16.88 138.953 16.88H140.493C141.389 16.88 142.038 17.0527 142.439 17.398C142.85 17.734 143.055 18.2007 143.055 18.798ZM142.005 18.882C142.005 18.5927 141.893 18.3593 141.669 18.182C141.455 18.014 141.067 17.93 140.507 17.93H138.099C137.651 18.1353 137.427 18.462 137.427 18.91C137.427 19.2273 137.544 19.498 137.777 19.722C138.02 19.946 138.426 20.058 138.995 20.058H140.031C140.657 20.058 141.142 19.96 141.487 19.764C141.833 19.568 142.005 19.274 142.005 18.882ZM139.499 14.696C139.975 14.696 140.353 14.584 140.633 14.36C140.913 14.1267 141.053 13.772 141.053 13.296V12.904C141.053 12.428 140.913 12.078 140.633 11.854C140.353 11.6207 139.975 11.504 139.499 11.504C139.023 11.504 138.645 11.6207 138.365 11.854C138.085 12.078 137.945 12.428 137.945 12.904V13.296C137.945 13.772 138.085 14.1267 138.365 14.36C138.645 14.584 139.023 14.696 139.499 14.696ZM145.216 18.168C144.917 18.168 144.698 18.0933 144.558 17.944C144.427 17.7947 144.362 17.5987 144.362 17.356V17.174C144.362 16.9313 144.427 16.7353 144.558 16.586C144.698 16.4367 144.917 16.362 145.216 16.362C145.515 16.362 145.729 16.4367 145.86 16.586C146 16.7353 146.07 16.9313 146.07 17.174V17.356C146.07 17.5987 146 17.7947 145.86 17.944C145.729 18.0933 145.515 18.168 145.216 18.168ZM145.216 12.414C144.917 12.414 144.698 12.3393 144.558 12.19C144.427 12.0407 144.362 11.8447 144.362 11.602V11.42C144.362 11.1773 144.427 10.9813 144.558 10.832C144.698 10.6827 144.917 10.608 145.216 10.608C145.515 10.608 145.729 10.6827 145.86 10.832C146 10.9813 146.07 11.1773 146.07 11.42V11.602C146.07 11.8447 146 12.0407 145.86 12.19C145.729 12.3393 145.515 12.414 145.216 12.414ZM154.768 18.168C153.602 18.168 152.748 17.7247 152.206 16.838C151.674 15.9513 151.408 14.71 151.408 13.114C151.408 11.518 151.674 10.2767 152.206 9.39C152.748 8.50333 153.602 8.06 154.768 8.06C155.935 8.06 156.784 8.50333 157.316 9.39C157.858 10.2767 158.128 11.518 158.128 13.114C158.128 14.71 157.858 15.9513 157.316 16.838C156.784 17.7247 155.935 18.168 154.768 18.168ZM154.768 17.146C155.151 17.146 155.478 17.0667 155.748 16.908C156.019 16.7493 156.238 16.5253 156.406 16.236C156.574 15.9467 156.696 15.606 156.77 15.214C156.854 14.822 156.896 14.388 156.896 13.912V12.316C156.896 11.84 156.854 11.406 156.77 11.014C156.696 10.622 156.574 10.2813 156.406 9.992C156.238 9.70267 156.019 9.47867 155.748 9.32C155.478 9.16133 155.151 9.082 154.768 9.082C154.386 9.082 154.059 9.16133 153.788 9.32C153.518 9.47867 153.298 9.70267 153.13 9.992C152.962 10.2813 152.836 10.622 152.752 11.014C152.678 11.406 152.64 11.84 152.64 12.316V13.912C152.64 14.388 152.678 14.822 152.752 15.214C152.836 15.606 152.962 15.9467 153.13 16.236C153.298 16.5253 153.518 16.7493 153.788 16.908C154.059 17.0667 154.386 17.146 154.768 17.146ZM160.195 18V16.964H162.925V9.096H162.827L160.363 11.392L159.677 10.65L162.267 8.228H164.101V16.964H166.621V18H160.195ZM169.401 18.168C169.103 18.168 168.883 18.0933 168.743 17.944C168.613 17.7947 168.547 17.5987 168.547 17.356V17.174C168.547 16.9313 168.613 16.7353 168.743 16.586C168.883 16.4367 169.103 16.362 169.401 16.362C169.7 16.362 169.915 16.4367 170.045 16.586C170.185 16.7353 170.255 16.9313 170.255 17.174V17.356C170.255 17.5987 170.185 17.7947 170.045 17.944C169.915 18.0933 169.7 18.168 169.401 18.168ZM169.401 12.414C169.103 12.414 168.883 12.3393 168.743 12.19C168.613 12.0407 168.547 11.8447 168.547 11.602V11.42C168.547 11.1773 168.613 10.9813 168.743 10.832C168.883 10.6827 169.103 10.608 169.401 10.608C169.7 10.608 169.915 10.6827 170.045 10.832C170.185 10.9813 170.255 11.1773 170.255 11.42V11.602C170.255 11.8447 170.185 12.0407 170.045 12.19C169.915 12.3393 169.7 12.414 169.401 12.414ZM175.099 12.372C175.762 12.372 176.257 12.2227 176.583 11.924C176.919 11.616 177.087 11.224 177.087 10.748V10.65C177.087 10.1367 176.924 9.754 176.597 9.502C176.28 9.24067 175.86 9.11 175.337 9.11C174.833 9.11 174.423 9.222 174.105 9.446C173.788 9.66067 173.527 9.95467 173.321 10.328L172.453 9.656C172.575 9.46 172.719 9.26867 172.887 9.082C173.065 8.886 173.27 8.71333 173.503 8.564C173.737 8.41467 174.007 8.29333 174.315 8.2C174.623 8.10667 174.973 8.06 175.365 8.06C175.776 8.06 176.163 8.116 176.527 8.228C176.891 8.33067 177.204 8.48933 177.465 8.704C177.736 8.90933 177.946 9.166 178.095 9.474C178.254 9.782 178.333 10.132 178.333 10.524C178.333 10.8413 178.282 11.126 178.179 11.378C178.086 11.63 177.955 11.8493 177.787 12.036C177.619 12.2227 177.419 12.3813 177.185 12.512C176.961 12.6427 176.719 12.7407 176.457 12.806V12.862C176.719 12.918 176.971 13.0113 177.213 13.142C177.465 13.2633 177.685 13.4267 177.871 13.632C178.067 13.828 178.221 14.0707 178.333 14.36C178.455 14.64 178.515 14.962 178.515 15.326C178.515 15.746 178.436 16.1333 178.277 16.488C178.119 16.8333 177.895 17.132 177.605 17.384C177.316 17.6267 176.966 17.818 176.555 17.958C176.145 18.098 175.692 18.168 175.197 18.168C174.777 18.168 174.404 18.1213 174.077 18.028C173.751 17.9347 173.461 17.8087 173.209 17.65C172.957 17.4913 172.733 17.314 172.537 17.118C172.351 16.922 172.183 16.7167 172.033 16.502L172.915 15.83C173.037 16.026 173.167 16.2033 173.307 16.362C173.457 16.5207 173.62 16.656 173.797 16.768C173.975 16.88 174.175 16.9687 174.399 17.034C174.623 17.09 174.885 17.118 175.183 17.118C175.874 17.118 176.397 16.964 176.751 16.656C177.106 16.3387 177.283 15.8907 177.283 15.312V15.2C177.283 14.6213 177.106 14.178 176.751 13.87C176.397 13.5527 175.874 13.394 175.183 13.394H174.035V12.372H175.099ZM184.04 18.168C182.873 18.168 182.019 17.7247 181.478 16.838C180.946 15.9513 180.68 14.71 180.68 13.114C180.68 11.518 180.946 10.2767 181.478 9.39C182.019 8.50333 182.873 8.06 184.04 8.06C185.207 8.06 186.056 8.50333 186.588 9.39C187.129 10.2767 187.4 11.518 187.4 13.114C187.4 14.71 187.129 15.9513 186.588 16.838C186.056 17.7247 185.207 18.168 184.04 18.168ZM184.04 17.146C184.423 17.146 184.749 17.0667 185.02 16.908C185.291 16.7493 185.51 16.5253 185.678 16.236C185.846 15.9467 185.967 15.606 186.042 15.214C186.126 14.822 186.168 14.388 186.168 13.912V12.316C186.168 11.84 186.126 11.406 186.042 11.014C185.967 10.622 185.846 10.2813 185.678 9.992C185.51 9.70267 185.291 9.47867 185.02 9.32C184.749 9.16133 184.423 9.082 184.04 9.082C183.657 9.082 183.331 9.16133 183.06 9.32C182.789 9.47867 182.57 9.70267 182.402 9.992C182.234 10.2813 182.108 10.622 182.024 11.014C181.949 11.406 181.912 11.84 181.912 12.316V13.912C181.912 14.388 181.949 14.822 182.024 15.214C182.108 15.606 182.234 15.9467 182.402 16.236C182.57 16.5253 182.789 16.7493 183.06 16.908C183.331 17.0667 183.657 17.146 184.04 17.146ZM190.278 18.168C189.98 18.168 189.76 18.0933 189.62 17.944C189.49 17.7947 189.424 17.5987 189.424 17.356V17.174C189.424 16.9313 189.49 16.7353 189.62 16.586C189.76 16.4367 189.98 16.362 190.278 16.362C190.577 16.362 190.792 16.4367 190.922 16.586C191.062 16.7353 191.132 16.9313 191.132 17.174V17.356C191.132 17.5987 191.062 17.7947 190.922 17.944C190.792 18.0933 190.577 18.168 190.278 18.168ZM190.278 12.414C189.98 12.414 189.76 12.3393 189.62 12.19C189.49 12.0407 189.424 11.8447 189.424 11.602V11.42C189.424 11.1773 189.49 10.9813 189.62 10.832C189.76 10.6827 189.98 10.608 190.278 10.608C190.577 10.608 190.792 10.6827 190.922 10.832C191.062 10.9813 191.132 11.1773 191.132 11.42V11.602C191.132 11.8447 191.062 12.0407 190.922 12.19C190.792 12.3393 190.577 12.414 190.278 12.414ZM196.522 18.168C195.356 18.168 194.502 17.7247 193.96 16.838C193.428 15.9513 193.162 14.71 193.162 13.114C193.162 11.518 193.428 10.2767 193.96 9.39C194.502 8.50333 195.356 8.06 196.522 8.06C197.689 8.06 198.538 8.50333 199.07 9.39C199.612 10.2767 199.882 11.518 199.882 13.114C199.882 14.71 199.612 15.9513 199.07 16.838C198.538 17.7247 197.689 18.168 196.522 18.168ZM196.522 17.146C196.905 17.146 197.232 17.0667 197.502 16.908C197.773 16.7493 197.992 16.5253 198.16 16.236C198.328 15.9467 198.45 15.606 198.524 15.214C198.608 14.822 198.65 14.388 198.65 13.912V12.316C198.65 11.84 198.608 11.406 198.524 11.014C198.45 10.622 198.328 10.2813 198.16 9.992C197.992 9.70267 197.773 9.47867 197.502 9.32C197.232 9.16133 196.905 9.082 196.522 9.082C196.14 9.082 195.813 9.16133 195.542 9.32C195.272 9.47867 195.052 9.70267 194.884 9.992C194.716 10.2813 194.59 10.622 194.506 11.014C194.432 11.406 194.394 11.84 194.394 12.316V13.912C194.394 14.388 194.432 14.822 194.506 15.214C194.59 15.606 194.716 15.9467 194.884 16.236C195.052 16.5253 195.272 16.7493 195.542 16.908C195.813 17.0667 196.14 17.146 196.522 17.146ZM204.917 18.168C203.75 18.168 202.896 17.7247 202.355 16.838C201.823 15.9513 201.557 14.71 201.557 13.114C201.557 11.518 201.823 10.2767 202.355 9.39C202.896 8.50333 203.75 8.06 204.917 8.06C206.083 8.06 206.933 8.50333 207.465 9.39C208.006 10.2767 208.277 11.518 208.277 13.114C208.277 14.71 208.006 15.9513 207.465 16.838C206.933 17.7247 206.083 18.168 204.917 18.168ZM204.917 17.146C205.299 17.146 205.626 17.0667 205.897 16.908C206.167 16.7493 206.387 16.5253 206.555 16.236C206.723 15.9467 206.844 15.606 206.919 15.214C207.003 14.822 207.045 14.388 207.045 13.912V12.316C207.045 11.84 207.003 11.406 206.919 11.014C206.844 10.622 206.723 10.2813 206.555 9.992C206.387 9.70267 206.167 9.47867 205.897 9.32C205.626 9.16133 205.299 9.082 204.917 9.082C204.534 9.082 204.207 9.16133 203.937 9.32C203.666 9.47867 203.447 9.70267 203.279 9.992C203.111 10.2813 202.985 10.622 202.901 11.014C202.826 11.406 202.789 11.84 202.789 12.316V13.912C202.789 14.388 202.826 14.822 202.901 15.214C202.985 15.606 203.111 15.9467 203.279 16.236C203.447 16.5253 203.666 16.7493 203.937 16.908C204.207 17.0667 204.534 17.146 204.917 17.146Z" fill="white"/>
</svg>
